<svg xmlns="http://www.w3.org/2000/svg" viewBox="0 0 604 546"><defs><style>.cls-1{isolation:isolate;}.cls-2,.cls-3,.cls-4{fill:#e02b4f;}.cls-3{mix-blend-mode:screen;}.cls-4{mix-blend-mode:multiply;}</style></defs><g class="cls-1"><g id="Icon:_Primary" data-name="Icon: Primary"><path class="cls-2" d="M60.39,272.21c-7.43,19.56-13,50-13,50C-36.67,215,53.6,128.8,70.18,114.43a.58.58,0,0,1,.88.73c-7.13,12.71-34.72,65.94-25.65,113.23A171.63,171.63,0,0,1,80.77,121.55C116.12,185.35,67.3,254,60.39,272.21Z"/><path class="cls-2" d="M141.87,337.54c-45.54,57.26-25,120.3-25,120.3a159.15,159.15,0,0,1-40.58-54.76c-25-56.56-19.32-138.52,34.37-184.24,31.81-27.07,106.77-40.73,88.84-32.73-81.29,36.33-99.93,120.3-99.93,120.3,34.32-77.73,97.67-104.75,108.66-108.93a1.42,1.42,0,0,1,1.91,1.12C219,256.94,185.76,282.35,141.87,337.54Z"/><path class="cls-2" d="M591.4,380.46c-10.55,1.2-48.92,7.71-85.77,40.87C466,457,335.2,594.16,197.86,506.7c-35.6-22.68-58.93-60.65-61.64-102.78-1.66-25.69,4.16-54.64,27.61-80.65a1.14,1.14,0,0,1,2,.84c-1.43,23.19-3.92,162.08,142.52,167.51l.56,0c-4-.35-90.46-8.83-118.61-88.76-22.88-65-2.79-107.79,6.91-118.27a1.22,1.22,0,0,1,2.11.92c-1.06,19.39-2.59,129.14,96,159.24,107.31,32.75,195.47-96.43,296.18-65.44A.58.58,0,0,1,591.4,380.46Z"/><path class="cls-2" d="M284,423.55a1.06,1.06,0,0,1-1.55.63c-16-8.73-58.29-25.56-70-108.36-3.95-28,6.24-63.79,14.49-77.82a108.79,108.79,0,0,0,8.32-16.86,2,2,0,0,0-2.48-2.56,6.87,6.87,0,0,1-2.4.4c-5.34-.29-9.67-4.38-9.58-9.76a9.56,9.56,0,0,1,16.05-6.88h0s10.74,6.84-2.23,38.85S233,331.11,243.91,349c0,0-15.17-65,1.54-102.75a1,1,0,0,1,1.89.39h0c-.13,7.46,1,22.07,10.69,33.75,0,0,25.73,27.84,12.68,87,0,0-5.36,34.88,13.07,55.05A1,1,0,0,1,284,423.55Z"/><path class="cls-2" d="M397.46,113.29l-.11,0-.1,0c.45-4,2.52-31.52-23-40.26h0a51.24,51.24,0,0,0-13.13-2.5,66.87,66.87,0,0,0-33.7,6.76c-14.93,7.28-49.31,20.85-97.93,12.62a257.37,257.37,0,0,1-38-9.11c-17.83-5.7-24.66-9.44-52.12-5A1.62,1.62,0,0,1,138,73c13.38-13,62.79-56.85,125.09-61.87,31.77-2.56,66.88,5,102.29,31.85a.44.44,0,0,1-.41.77l0,0c-11.7-4.3-57.3-18-118.4,4.06,0,0,95.63-23.46,144.3,20.56C403.51,79.83,406.68,98.79,397.46,113.29Z"/><path class="cls-2" d="M379.18,95.62S352.09,102,343.64,77.17C343.64,77.17,367.85,68.13,379.18,95.62Z"/><path class="cls-2" d="M366,135.07s-8.08-26.63,16.11-36.67C382.07,98.4,392.65,122,366,135.07Z"/><path class="cls-2" d="M342.8,114.92s-30.84,7.21-40.47-21C302.33,93.91,329.9,83.63,342.8,114.92Z"/><path class="cls-2" d="M325.75,161.86s-9.18-30.31,18.35-41.74C344.1,120.12,356.14,147,325.75,161.86Z"/><path class="cls-2" d="M297.15,138.06s-36.48.61-40.44-33.5C256.71,104.56,290.24,99.7,297.15,138.06Z"/><path class="cls-2" d="M266.52,186.75s-2.95-36.36,30.83-42.51C297.35,144.24,304.36,177.4,266.52,186.75Z"/><path class="cls-2" d="M247.74,141.94h0c-1-.23-35.31-8.41-31.24-41.79C216.48,100.14,250,103.27,247.74,141.94Z"/><path class="cls-2" d="M246.5,148s-1,33.68-39.71,33.89C206.79,181.84,212.41,146,246.5,148Z"/><path class="cls-2" d="M202.17,135.43h0c-.84-.36-31.82-14.51-21.73-45.33h0C181.27,90.34,211.42,99.8,202.17,135.43Z"/><path class="cls-2" d="M199.86,140.88s-7.2,31.64-43.85,24.61C156,165.49,168,132.68,199.86,140.88Z"/><path class="cls-2" d="M102.61,203.26S107,164,144.13,164.42C144.13,164.42,144.75,201.11,102.61,203.26Z"/><path class="cls-2" d="M157.47,122.23a0,0,0,0,0,0,0c-.74-.33-28-12.75-19.11-39.88C138.35,82.34,165.72,90.45,157.47,122.23Z"/><path class="cls-2" d="M130.05,116S94.29,126.31,81.32,93.78C81.32,93.78,113,80.08,130.05,116Z"/><path class="cls-2" d="M153.09,128.9s-12,25.9-42.26,13.1C110.83,142,127.2,116,153.09,128.9Z"/><path class="cls-2" d="M401.43,385.81c-3.36,10.55-4.93,23.2,2.85,30.52h0a.49.49,0,0,1-.21.82l-.07,0c-6.44,1.72-45.75,9.21-79.74-54.08,0,0-9.09-22.71-29.8-30.51-.27-.1-.5-.19-.73-.26-.59-.22-1.19-.42-1.81-.61a.35.35,0,0,1,.11-.69,70.2,70.2,0,0,1,31,9,32.93,32.93,0,0,0,17.79,4.4c6.55-.29,14-2.58,18.76-10.15,7.1-11.25,9.26-19.79,9.9-23.94a5.63,5.63,0,0,0-1.64-4.91,32.64,32.64,0,0,0-9-6.05.46.46,0,0,1,.22-.88c6.32.56,19.89,1.24,20.84-3.32,1.25-6-2-14.91,6.91-18.92a35,35,0,0,0,4.3-2.27c5.71-3.54,8.27-7.93,8.26-14.82a42.14,42.14,0,0,0-1.33-7.66,28.14,28.14,0,0,0-1.19-3.87c-3-6.83-9-23.08-3.88-37.3,0,0,6.15-16.4,7.1-23.58a105.79,105.79,0,0,0,1.67-12.33,75.68,75.68,0,0,1,5.2,25c.56,13.55-1.93,27-5.46,40.14a30.71,30.71,0,0,0-.28,14.88l0,.08c1.14,4.92,2.44,13.37-7.31,20.65a14.2,14.2,0,0,0-5.33,7.81c-1.3,5-2.43,10-3.3,15.12a103.93,103.93,0,0,0-.9,31.72c4-34.08,27.21-82.6,27.21-82.6,34.6-91.09-20.76-117.6-20.76-117.6s21.34-36,59.68,1.72c37.6,37.05,47.75,121.82-36.27,230.09A78.7,78.7,0,0,0,401.43,385.81Z"/><path class="cls-2" d="M385.53,197.57a5.44,5.44,0,0,1-2.11,4.21S379.76,205.33,373,199c-6.43-6.07-21.71-19.49-42.51-14.47a.46.46,0,0,1-.37-.05.51.51,0,0,1-.06-.9c6.72-4.44,26-12.35,41.69-2.08C383.15,189,385.65,194.28,385.53,197.57Z"/><path class="cls-2" d="M374.46,221.12c-5.25,2.12-12.16,2.81-20.81-.63-11.84-4.71-16.22-12.36-17.8-18.08a.59.59,0,0,1,1-.6,63.55,63.55,0,0,0,39,17.48.59.59,0,0,1,.21,1.13C375.54,220.67,375,220.9,374.46,221.12Z"/><path class="cls-3" d="M130.05,116c-20.4-4.93-48.73-22.22-48.73-22.22S113,80.08,130.05,116Z"/><path class="cls-3" d="M157.47,122.23a0,0,0,0,0,0,0c-4.55-6.06-19.11-39.88-19.11-39.88S165.72,90.45,157.47,122.23Z"/><path class="cls-3" d="M153.09,128.9c-7.78,6-42.26,13.1-42.26,13.1S127.2,116,153.09,128.9Z"/><path class="cls-3" d="M202.17,135.43h0c-9-9.21-21.53-44.76-21.72-45.32C181.27,90.34,211.42,99.8,202.17,135.43Z"/><path class="cls-3" d="M199.86,140.88l-.17.15c-2.38,1.84-26.95,20.63-43.68,24.46C156,165.49,168,132.68,199.86,140.88Z"/><path class="cls-3" d="M247.74,141.94h0c-12.78-8.33-31.24-41.79-31.24-41.79S250,103.27,247.74,141.94Z"/><path class="cls-3" d="M246.5,148s-20.22,25.49-39.71,33.89C206.79,181.84,212.41,146,246.5,148Z"/><path class="cls-3" d="M297.15,138.06c-16.93-6.45-40.44-33.5-40.44-33.5S290.24,99.7,297.15,138.06Z"/><path class="cls-3" d="M297.35,144.24s-18.55,34.09-30.83,42.51C266.52,186.75,263.57,150.39,297.35,144.24Z"/><path class="cls-3" d="M344.1,120.12s-3.44,25.46-18.35,41.74C325.75,161.86,316.57,131.55,344.1,120.12Z"/><path class="cls-3" d="M342.8,114.92c-14-2.76-40.47-21-40.47-21S329.9,83.63,342.8,114.92Z"/><path class="cls-3" d="M379.18,95.62c-9.53-.27-35.54-18.45-35.54-18.45S367.85,68.13,379.18,95.62Z"/><path class="cls-3" d="M382.07,98.4s-4,22-16.11,36.67C366,135.07,357.88,108.44,382.07,98.4Z"/><path class="cls-3" d="M144.13,164.42s-19.39,27.63-41.52,38.84C102.61,203.26,107,164,144.13,164.42Z"/><path class="cls-3" d="M365.38,43.62l-.45.1,0,0C363,42.81,256.71-14.39,138,73c13.38-13,62.79-56.85,125.09-61.87,31.77-2.56,66.88,5,102.29,31.85A.43.43,0,0,1,365.38,43.62Z"/><path class="cls-4" d="M374.25,73a51.24,51.24,0,0,0-13.13-2.5,66.87,66.87,0,0,0-33.7,6.76c-14.93,7.28-49.31,20.85-97.93,12.62a257.37,257.37,0,0,1-38-9.11c21.07,3.13,54,4.93,89.13-5C337.85,59.59,371.69,72,374.25,73Z"/><path class="cls-3" d="M60.39,272.21c-7.43,19.56-13,50-13,50-8.54-26.55-5.1-58.14,14.61-99.34S80.77,121.55,80.77,121.55C116.12,185.35,67.3,254,60.39,272.21Z"/><path class="cls-3" d="M141.87,337.54c-45.54,57.26-25,120.3-25,120.3C90.25,418,87.55,332.63,138.5,295s69.75-97.47,69.75-97.47a1.42,1.42,0,0,1,1.91,1.12C219,256.94,185.76,282.35,141.87,337.54Z"/><path class="cls-3" d="M591.49,379.33s-66.67-7.94-134,55S159.71,517.58,197.2,284.61a1.22,1.22,0,0,1,2.11.92c-1.06,19.39-2.59,129.14,96,159.24C402.62,477.52,490.78,348.34,591.49,379.33Z"/><path class="cls-3" d="M308.9,491.64C111.1,496,165.82,324.11,165.82,324.11c-1.43,23.19-3.92,162.08,142.52,167.51Z"/><path class="cls-3" d="M284,423.55c-50.73-32.23-20.9-102.45-32.92-130.21-12.1-28-3.75-46.71-3.75-46.71-.13,7.46,1,22.07,10.69,33.75,0,0,25.73,27.84,12.68,87,0,0-5.36,34.88,13.07,55.05A1,1,0,0,1,284,423.55Z"/><path class="cls-3" d="M401.43,385.81c-3.36,10.56-4.93,23.22,2.87,30.53-57.53-53.57,41.93-88,50-194.46s-63.41-92.25-63.41-92.25,21.34-36,59.68,1.72c37.6,37.05,47.75,121.82-36.27,230.09A78.7,78.7,0,0,0,401.43,385.81Z"/><path class="cls-4" d="M385.53,197.57a5.44,5.44,0,0,1-2.11,4.21S379.76,205.33,373,199c-6.43-6.07-21.71-19.49-42.51-14.47a.46.46,0,0,1-.37-.05c5.65-3.27,22.52-10.11,38,5.14C378,199.26,383,199.5,385.53,197.57Z"/></g></g></svg>