<svg id="Icon:_White" data-name="Icon: White" xmlns="http://www.w3.org/2000/svg" viewBox="0 0 604 546"><defs><style>.cls-1{fill:#fff;}</style></defs><path class="cls-1" d="M60.07,272.21c-7.44,19.54-13,50-13,50C-37.12,215.07,53.27,129,69.87,114.61a.58.58,0,0,1,.88.72C63.62,128,36,181.2,45.07,228.44a171.16,171.16,0,0,1,35.4-106.72C115.88,185.44,67,254.05,60.07,272.21Z"/><path class="cls-1" d="M141.66,337.47c-45.6,57.2-25,120.17-25,120.17A159.18,159.18,0,0,1,76,402.94c-25-56.5-19.34-138.37,34.42-184,31.85-27.05,106.9-40.68,89-32.69C118,222.49,99.33,306.38,99.33,306.38c34.36-77.65,97.79-104.64,108.8-108.82a1.43,1.43,0,0,1,1.91,1.12C218.93,257,185.6,282.34,141.66,337.47Z"/><path class="cls-1" d="M591.78,380.34c-10.56,1.2-49,7.7-85.88,40.83-39.66,35.59-170.66,172.63-308.17,85.27-35.66-22.66-59-60.58-61.73-102.66-1.66-25.66,4.16-54.58,27.64-80.56a1.15,1.15,0,0,1,2,.84c-1.43,23.16-3.92,161.89,142.71,167.31.37,0,.56,0,.56,0-4-.35-90.58-8.82-118.77-88.67-22.91-64.91-2.79-107.67,6.92-118.13a1.22,1.22,0,0,1,2.11.91c-1,19.37-2.59,129,96.13,159.07C402.75,477.3,491,348.26,591.87,379.21A.58.58,0,0,1,591.78,380.34Z"/><path class="cls-1" d="M284,423.39a1.07,1.07,0,0,1-1.56.62c-16.05-8.72-58.37-25.53-70.05-108.23-3.95-28,6.25-63.73,14.51-77.74a107.69,107.69,0,0,0,8.33-16.84,2,2,0,0,0-2.48-2.56,6.91,6.91,0,0,1-2.4.4c-5.35-.29-9.69-4.38-9.6-9.75a9.58,9.58,0,0,1,16.08-6.87h0s10.75,6.83-2.24,38.8S232.87,331,243.83,348.9c0,0-15.19-64.88,1.55-102.64a1,1,0,0,1,1.89.38v0c-.13,7.45,1,22,10.7,33.71,0,0,25.77,27.81,12.7,86.95,0,0-5.37,34.84,13.08,55A1,1,0,0,1,284,423.39Z"/><path class="cls-1" d="M397.58,113.46l-.11,0a.21.21,0,0,1-.1,0c.45-4,2.53-31.48-23-40.21h0a51.32,51.32,0,0,0-13.14-2.5,67.23,67.23,0,0,0-33.74,6.75c-15,7.28-49.38,20.83-98.06,12.61A259.55,259.55,0,0,1,191.34,81c-17.86-5.7-24.7-9.44-52.2-5a1.62,1.62,0,0,1-1.39-2.76c13.39-13,62.87-56.78,125.25-61.8,31.81-2.56,67,5,102.43,31.81a.43.43,0,0,1,0,.67.42.42,0,0,1-.45.1h0C353.26,39.65,307.61,26,246.42,48c0,0,95.76-23.44,144.5,20.54C403.65,80,406.82,99,397.58,113.46Z"/><path class="cls-1" d="M379.29,95.81s-27.13,6.33-35.6-18.43C343.69,77.38,367.94,68.36,379.29,95.81Z"/><path class="cls-1" d="M366,135.22S358,108.62,382.18,98.6C382.18,98.6,392.77,122.15,366,135.22Z"/><path class="cls-1" d="M342.85,115.1s-30.88,7.2-40.52-21C302.33,94.11,329.93,83.84,342.85,115.1Z"/><path class="cls-1" d="M325.78,162s-9.19-30.27,18.38-41.69C344.16,120.29,356.21,147.11,325.78,162Z"/><path class="cls-1" d="M297.15,138.21s-36.54.61-40.5-33.47C256.65,104.74,290.23,99.89,297.15,138.21Z"/><path class="cls-1" d="M266.47,186.85s-3-36.32,30.88-42.47C297.35,144.38,304.37,177.5,266.47,186.85Z"/><path class="cls-1" d="M247.67,142.08h0c-1-.23-35.35-8.39-31.27-41.74C216.37,100.33,250,103.45,247.67,142.08Z"/><path class="cls-1" d="M246.42,148.09s-1,33.64-39.75,33.85C206.67,181.94,212.29,146.16,246.42,148.09Z"/><path class="cls-1" d="M202,135.58h0c-.84-.36-31.86-14.49-21.76-45.28h0C181.11,90.54,211.3,100,202,135.58Z"/><path class="cls-1" d="M199.73,141s-7.21,31.6-43.91,24.58C155.82,165.61,167.84,132.84,199.73,141Z"/><path class="cls-1" d="M102.34,203.33s4.36-39.22,41.58-38.79C143.92,164.54,144.54,201.19,102.34,203.33Z"/><path class="cls-1" d="M157.28,122.4s0,0,0,0c-.74-.32-28-12.73-19.13-39.83C138.14,82.55,165.54,90.65,157.28,122.4Z"/><path class="cls-1" d="M129.83,116.17S94,126.47,81,94C81,94,112.8,80.29,129.83,116.17Z"/><path class="cls-1" d="M152.89,129.06s-12,25.87-42.31,13.09C110.58,142.15,127,116.16,152.89,129.06Z"/><path class="cls-1" d="M401.56,385.68c-3.36,10.54-4.93,23.18,2.85,30.49h0a.48.48,0,0,1-.22.82l-.07,0c-6.44,1.72-45.81,9.2-79.84-54,0,0-9.1-22.68-29.84-30.48l-.73-.26c-.59-.21-1.2-.41-1.81-.6A.35.35,0,0,1,292,331a70.36,70.36,0,0,1,31,9,33.15,33.15,0,0,0,17.82,4.41c6.56-.3,14-2.59,18.79-10.14,7.1-11.25,9.26-19.78,9.91-23.92a5.6,5.6,0,0,0-1.64-4.9,32.65,32.65,0,0,0-9-6.05.46.46,0,0,1,.23-.88c6.33.57,19.91,1.24,20.86-3.31,1.25-6-2-14.89,6.92-18.91a35,35,0,0,0,4.3-2.26c5.73-3.53,8.29-7.93,8.28-14.8a41.91,41.91,0,0,0-1.33-7.65,28.88,28.88,0,0,0-1.2-3.87c-3-6.82-9-23.06-3.89-37.26,0,0,6.17-16.39,7.12-23.55a107,107,0,0,0,1.68-12.32,75.51,75.51,0,0,1,5.2,25c.56,13.54-1.93,27-5.47,40.1a30.51,30.51,0,0,0-.27,14.86l0,.08c1.14,4.92,2.44,13.36-7.32,20.63a14.12,14.12,0,0,0-5.33,7.8c-1.31,5-2.44,10-3.31,15.1a103.37,103.37,0,0,0-.91,31.68c4-34,27.26-82.5,27.26-82.5,34.64-91-20.79-117.47-20.79-117.47s21.37-36,59.75,1.72c37.66,37,47.82,121.68-36.31,229.83A78.62,78.62,0,0,0,401.56,385.68Z"/><path class="cls-1" d="M385.64,197.65a5.4,5.4,0,0,1-2.12,4.2s-3.66,3.55-10.38-2.77c-6.44-6.06-21.75-19.47-42.58-14.45a.44.44,0,0,1-.36,0,.52.52,0,0,1-.06-.91c6.72-4.42,26.05-12.33,41.74-2.07C383.26,189.06,385.76,194.36,385.64,197.65Z"/><path class="cls-1" d="M374.56,221.18c-5.26,2.11-12.18,2.81-20.84-.63-11.86-4.71-16.25-12.35-17.83-18.07a.6.6,0,0,1,1-.59,63.69,63.69,0,0,0,39.06,17.46.59.59,0,0,1,.21,1.13C375.64,220.73,375.11,221,374.56,221.18Z"/></svg>