<svg xmlns="http://www.w3.org/2000/svg" viewBox="0 0 604 546"><defs><style>.cls-1{fill:#171f28;}</style></defs><g id="Icon:_Black" data-name="Icon: Black"><path class="cls-1" d="M60.31,272.21c-7.44,19.57-13,50-13,50C-36.78,215,53.52,128.75,70.1,114.38a.58.58,0,0,1,.88.73c-7.12,12.71-34.73,66-25.66,113.27A171.78,171.78,0,0,1,80.69,121.5C116.06,185.32,67.22,254,60.31,272.21Z"/><path class="cls-1" d="M141.82,337.56c-45.56,57.28-25,120.34-25,120.34a159.27,159.27,0,0,1-40.6-54.78c-25-56.58-19.32-138.56,34.39-184.29,31.81-27.09,106.8-40.75,88.87-32.75-81.32,36.34-100,120.35-100,120.35,34.32-77.77,97.7-104.79,108.69-109a1.43,1.43,0,0,1,1.91,1.12C219,256.93,185.72,282.35,141.82,337.56Z"/><path class="cls-1" d="M591.5,380.49c-10.56,1.21-48.94,7.72-85.81,40.89C466.08,457,335.21,594.26,197.83,506.78c-35.62-22.69-59-60.68-61.67-102.82-1.65-25.69,4.16-54.65,27.62-80.67a1.15,1.15,0,0,1,2,.84c-1.43,23.19-3.92,162.13,142.57,167.56l.55,0c-4-.35-90.49-8.83-118.65-88.79-22.89-65-2.79-107.83,6.91-118.31a1.23,1.23,0,0,1,2.11.92c-1.05,19.4-2.58,129.19,96,159.29,107.35,32.77,195.54-96.45,296.28-65.46A.58.58,0,0,1,591.5,380.49Z"/><path class="cls-1" d="M284,423.6a1.07,1.07,0,0,1-1.56.63c-16-8.73-58.31-25.57-70-108.39C208.52,287.78,218.71,252,227,238a109.38,109.38,0,0,0,8.31-16.86,2,2,0,0,0-2.47-2.57,7,7,0,0,1-2.4.41c-5.34-.29-9.68-4.39-9.59-9.77a9.57,9.57,0,0,1,16.06-6.88v0s10.74,6.85-2.23,38.87-1.73,90,9.23,107.84c0,0-15.18-65,1.55-102.79a1,1,0,0,1,1.88.39h0c-.12,7.46,1.06,22.08,10.69,33.76,0,0,25.75,27.86,12.69,87.07,0,0-5.36,34.89,13.07,55.07A1,1,0,0,1,284,423.6Z"/><path class="cls-1" d="M397.49,113.24l-.11,0a.19.19,0,0,1-.1,0c.45-4,2.52-31.52-23-40.27h0a51.24,51.24,0,0,0-13.13-2.5,66.91,66.91,0,0,0-33.71,6.76c-14.94,7.29-49.33,20.86-98,12.63a257.24,257.24,0,0,1-38-9.11c-17.84-5.7-24.68-9.45-52.15-5a1.62,1.62,0,0,1-1.39-2.77C151.29,59.91,200.72,16,263,11c31.77-2.56,66.9,5,102.32,31.87a.42.42,0,0,1,0,.66.43.43,0,0,1-.45.1h0c-11.71-4.31-57.32-18-118.44,4.06,0,0,95.66-23.47,144.35,20.57C403.55,79.76,406.71,98.74,397.49,113.24Z"/><path class="cls-1" d="M379.21,95.56s-27.1,6.33-35.56-18.46C343.65,77.1,367.88,68.07,379.21,95.56Z"/><path class="cls-1" d="M366,135s-8.08-26.63,16.12-36.67C382.1,98.35,392.68,121.93,366,135Z"/><path class="cls-1" d="M342.81,114.87s-30.85,7.21-40.48-21C302.33,93.85,329.91,83.57,342.81,114.87Z"/><path class="cls-1" d="M325.76,161.82s-9.18-30.32,18.36-41.75C344.12,120.07,356.15,146.93,325.76,161.82Z"/><path class="cls-1" d="M297.15,138s-36.5.62-40.46-33.51C256.69,104.5,290.24,99.64,297.15,138Z"/><path class="cls-1" d="M266.51,186.73s-3-36.38,30.84-42.54C297.35,144.19,304.36,177.36,266.51,186.73Z"/><path class="cls-1" d="M247.72,141.9s0,0,0,0c-1-.22-35.32-8.4-31.25-41.8C216.45,100.08,250,103.21,247.72,141.9Z"/><path class="cls-1" d="M246.48,147.91s-1,33.69-39.72,33.9C206.76,181.81,212.38,146,246.48,147.91Z"/><path class="cls-1" d="M202.14,135.39v0c-.85-.36-31.83-14.51-21.74-45.34h0C181.23,90.28,211.39,99.74,202.14,135.39Z"/><path class="cls-1" d="M199.83,140.84s-7.2,31.65-43.86,24.61C156,165.45,168,132.64,199.83,140.84Z"/><path class="cls-1" d="M102.54,203.23s4.35-39.27,41.54-38.84C144.08,164.39,144.69,201.09,102.54,203.23Z"/><path class="cls-1" d="M157.42,122.18a0,0,0,0,0,0,0c-.74-.33-28-12.75-19.11-39.89C138.3,82.28,165.68,90.39,157.42,122.18Z"/><path class="cls-1" d="M130,116S94.22,126.27,81.24,93.72C81.24,93.72,113,80,130,116Z"/><path class="cls-1" d="M153,128.85S141,154.76,110.77,142C110.77,142,127.14,115.94,153,128.85Z"/><path class="cls-1" d="M401.46,385.85c-3.35,10.55-4.92,23.2,2.85,30.53h0a.49.49,0,0,1-.22.82l-.07,0c-6.43,1.72-45.76,9.21-79.76-54.1,0,0-9.1-22.72-29.82-30.52l-.72-.26c-.59-.22-1.2-.42-1.81-.61a.35.35,0,0,1,.11-.69,70.2,70.2,0,0,1,31,9,33.08,33.08,0,0,0,17.8,4.41c6.55-.3,14-2.59,18.77-10.16,7.1-11.25,9.26-19.8,9.9-23.94a5.66,5.66,0,0,0-1.63-4.92,32.88,32.88,0,0,0-9-6.05.46.46,0,0,1,.22-.88c6.32.56,19.89,1.24,20.85-3.32,1.24-6-2-14.91,6.91-18.93a35.79,35.79,0,0,0,4.3-2.27c5.71-3.54,8.28-7.94,8.26-14.82a42.36,42.36,0,0,0-1.33-7.67,28.14,28.14,0,0,0-1.19-3.87c-3-6.83-9-23.09-3.88-37.31,0,0,6.15-16.41,7.11-23.58a106.18,106.18,0,0,0,1.67-12.34,75.73,75.73,0,0,1,5.2,25c.55,13.56-1.94,27-5.47,40.16a30.88,30.88,0,0,0-.27,14.89l0,.07c1.15,4.93,2.44,13.38-7.31,20.66a14.2,14.2,0,0,0-5.33,7.81c-1.3,5-2.43,10-3.3,15.13a103.67,103.67,0,0,0-.91,31.73c4-34.09,27.23-82.63,27.23-82.63,34.6-91.11-20.77-117.64-20.77-117.64s21.35-36.05,59.7,1.72c37.61,37.07,47.76,121.87-36.28,230.17A78.57,78.57,0,0,0,401.46,385.85Z"/><path class="cls-1" d="M385.55,197.54a5.41,5.41,0,0,1-2.11,4.21s-3.65,3.56-10.37-2.77c-6.44-6.07-21.73-19.5-42.54-14.48a.45.45,0,0,1-.36-.05.51.51,0,0,1-.06-.9c6.72-4.44,26-12.35,41.7-2.08C383.18,188.94,385.68,194.25,385.55,197.54Z"/><path class="cls-1" d="M374.49,221.11c-5.26,2.11-12.17,2.81-20.82-.64-11.85-4.71-16.23-12.36-17.81-18.09a.59.59,0,0,1,1-.59,63.59,63.59,0,0,0,39,17.48.59.59,0,0,1,.21,1.13C375.57,220.65,375,220.89,374.49,221.11Z"/></g></svg>