<svg xmlns="http://www.w3.org/2000/svg" xmlns:xlink="http://www.w3.org/1999/xlink" viewBox="0 0 870 1112"><defs><style>.cls-1{isolation:isolate;}.cls-2{fill:url(#linear-gradient);}.cls-3{font-size:206.32px;font-family:PlayfairDisplay-Regular, Playfair Display;}.cls-4{letter-spacing:-0.06em;}.cls-5{letter-spacing:-0.02em;}.cls-6{letter-spacing:-0.01em;}.cls-7,.cls-8,.cls-9{fill:#e02b4f;}.cls-8{mix-blend-mode:screen;}.cls-9{mix-blend-mode:multiply;}</style><linearGradient id="linear-gradient" x1="229.46" y1="1058.97" x2="630.92" y2="1058.97" gradientUnits="userSpaceOnUse"><stop offset="0" stop-color="#e02b4f" stop-opacity="0.6"/><stop offset="0.39" stop-color="#e02b4f" stop-opacity="0.74"/><stop offset="1" stop-color="#e02b4f"/></linearGradient></defs><g class="cls-1"><g id="Layer_4" data-name="Layer 4"><path class="cls-2" d="M229.46,1059c0-11,8.45-19,19.81-19,6,0,11.19,2.16,14.62,6.17l-4.43,4.18a13,13,0,0,0-9.88-4.34c-7.66,0-13.2,5.39-13.2,13s5.54,13,13.2,13a12.86,12.86,0,0,0,9.88-4.39l4.43,4.23c-3.43,4-8.6,6.18-14.68,6.18C237.91,1078,229.46,1070,229.46,1059Z"/><path class="cls-2" d="M277.62,1059c0-10.94,8.45-19,19.91-19s19.91,8,19.91,19-8.45,19-19.91,19S277.62,1069.9,277.62,1059Zm32.91,0a13,13,0,1,0-13,13A12.61,12.61,0,0,0,310.53,1059Z"/><path class="cls-2" d="M332.18,1073.54l2.37-5.33a20.54,20.54,0,0,0,12.2,4.06c5.76,0,8.19-2.06,8.19-4.8,0-8-22-2.75-22-16.48,0-6,4.75-11,14.89-11a23.4,23.4,0,0,1,12.31,3.27l-2.17,5.33a20.58,20.58,0,0,0-10.19-2.9c-5.7,0-8,2.22-8,5,0,7.87,21.92,2.75,21.92,16.32,0,5.92-4.81,11-14.95,11C341,1078,335.24,1076.18,332.18,1073.54Z"/><path class="cls-2" d="M413,1077.45l0-24.5-12.15,20.28h-3.06l-12.15-20v24.19h-6.55v-37h5.65L399.41,1065l14.41-24.51h5.65l.06,37Z"/><path class="cls-2" d="M467.79,1071.69v5.76H440.07v-37h27v5.76H446.94v9.61h17.85v5.65H446.94v10.19Z"/><path class="cls-2" d="M493.51,1046.29H481.26v-5.81h31.37v5.81H500.38v31.16h-6.87Z"/><path class="cls-2" d="M528.37,1040.48h6.86v37h-6.86Z"/><path class="cls-2" d="M553.13,1059c0-11,8.45-19,19.81-19,6,0,11.19,2.16,14.63,6.17l-4.44,4.18a13,13,0,0,0-9.87-4.34c-7.66,0-13.21,5.39-13.21,13s5.55,13,13.21,13a12.84,12.84,0,0,0,9.87-4.39l4.44,4.23c-3.44,4-8.61,6.18-14.68,6.18C561.58,1078,553.13,1070,553.13,1059Z"/><path class="cls-2" d="M601.4,1073.54l2.38-5.33a20.54,20.54,0,0,0,12.2,4.06c5.76,0,8.19-2.06,8.19-4.8,0-8-22-2.75-22-16.48,0-6,4.75-11,14.89-11a23.36,23.36,0,0,1,12.3,3.27l-2.16,5.33a20.58,20.58,0,0,0-10.19-2.9c-5.71,0-8,2.22-8,5,0,7.87,21.91,2.75,21.91,16.32,0,5.92-4.8,11-14.94,11C610.22,1078,604.47,1076.18,601.4,1073.54Z"/><text class="cls-3" transform="translate(119.84 987.17)"><tspan class="cls-4">V</tspan><tspan class="cls-5" x="116.77" y="0">A</tspan><tspan class="cls-6" x="242.63" y="0">R</tspan><tspan x="374.88" y="0">US</tspan></text><path class="cls-7" d="M82.37,402.34c-10.85,28.54-18.92,73-18.92,73-122.75-156.5,9-282.31,33.2-303.28a.84.84,0,0,1,1.28,1.06C87.54,191.67,47.27,269.36,60.5,338.38a250.46,250.46,0,0,1,51.61-155.93C163.71,275.56,92.45,375.8,82.37,402.34Z"/><path class="cls-7" d="M201.29,497.68c-66.47,83.58-36.46,175.59-36.46,175.59-17.71-15.64-42.33-41.67-59.23-79.93-36.46-82.55-28.2-202.16,50.17-268.89,46.42-39.52,155.82-59.45,129.66-47.77-118.64,53-145.85,175.58-145.85,175.58,50.09-113.46,142.55-152.89,158.59-159A2.07,2.07,0,0,1,301,294.9C313.92,380.05,265.34,417.13,201.29,497.68Z"/><path class="cls-7" d="M857.38,560.32C842,562.08,786,571.58,732.2,620,674.4,672,483.45,872.22,283,744.58c-52-33.11-86-88.53-90-150-2.42-37.49,6.07-79.75,40.29-117.71a1.68,1.68,0,0,1,2.92,1.23c-2.09,33.84-5.72,236.55,208,244.47.53,0,.81,0,.81,0-5.89-.52-132-12.89-173.11-129.55-33.4-94.85-4.07-157.33,10.08-172.62a1.79,1.79,0,0,1,3.08,1.34c-1.54,28.31-3.78,188.49,140.11,232.41C581.86,702,710.53,513.45,857.51,558.67A.85.85,0,0,1,857.38,560.32Z"/><path class="cls-7" d="M408.75,623.22a1.56,1.56,0,0,1-2.27.92C383.09,611.4,321.4,586.83,304.37,466c-5.76-40.94,9.11-93.11,21.15-113.58a157.4,157.4,0,0,0,12.14-24.61,2.88,2.88,0,0,0-3.61-3.74,9.79,9.79,0,0,1-3.5.59c-7.79-.42-14.12-6.4-14-14.24A14,14,0,0,1,340,300.36l0,0s15.67,10-3.27,56.7-2.51,131.26,13.48,157.34c0,0-22.15-94.79,2.25-150a1.43,1.43,0,0,1,2.75.57v0c-.18,10.89,1.54,32.21,15.6,49.26,0,0,37.56,40.64,18.52,127,0,0-7.83,50.9,19.06,80.34A1.51,1.51,0,0,1,408.75,623.22Z"/><path class="cls-7" d="M574.32,170.39a.57.57,0,0,0-.16-.06.43.43,0,0,1-.15,0c.66-5.91,3.69-46-33.55-58.76h0a74.5,74.5,0,0,0-19.16-3.64,97.62,97.62,0,0,0-49.19,9.86c-21.79,10.63-72,30.43-142.93,18.42a377.27,377.27,0,0,1-55.47-13.29c-26-8.32-36-13.78-76.08-7.31a2.37,2.37,0,0,1-2-4c19.52-19,91.64-83,182.56-90.3,46.37-3.74,97.62,7.26,149.3,46.49a.62.62,0,0,1,0,1,.6.6,0,0,1-.66.15l0,0C509.72,62.54,443.18,42.62,354,74.75c0,0,139.58-34.24,210.62,30C583.16,121.55,587.78,149.23,574.32,170.39Z"/><path class="cls-7" d="M547.65,144.6s-39.54,9.24-51.88-26.93C495.77,117.67,531.12,104.49,547.65,144.6Z"/><path class="cls-7" d="M528.35,202.18s-11.79-38.87,23.52-53.51C551.87,148.67,567.3,183.07,528.35,202.18Z"/><path class="cls-7" d="M494.54,172.77s-45,10.52-59.06-30.67C435.48,142.1,475.72,127.11,494.54,172.77Z"/><path class="cls-7" d="M469.67,241.28s-13.4-44.24,26.78-60.92C496.45,180.36,514,219.55,469.67,241.28Z"/><path class="cls-7" d="M427.93,206.54s-53.26.9-59-48.89C368.9,157.65,417.84,150.55,427.93,206.54Z"/><path class="cls-7" d="M383.21,277.61s-4.3-53.07,45-62.05C428.22,215.56,438.45,264,383.21,277.61Z"/><path class="cls-7" d="M355.81,212.2h0c-1.48-.33-51.53-12.27-45.59-61C310.18,151.2,359.13,155.76,355.81,212.2Z"/><path class="cls-7" d="M354,221s-1.41,49.15-57.94,49.46C296.05,270.44,304.24,218.16,354,221Z"/><path class="cls-7" d="M289.3,202.71l0,0c-1.23-.53-46.43-21.17-31.71-66.16l0,0C258.8,136.9,302.79,150.7,289.3,202.71Z"/><path class="cls-7" d="M285.93,210.66s-10.51,46.18-64,35.92C221.93,246.58,239.46,198.69,285.93,210.66Z"/><path class="cls-7" d="M144,301.7s6.35-57.31,60.61-56.68C204.59,245,205.49,298.56,144,301.7Z"/><path class="cls-7" d="M224.06,183.44a0,0,0,0,0,0,0c-1.08-.47-40.84-18.6-27.88-58.2C196.16,125.22,236.1,137.06,224.06,183.44Z"/><path class="cls-7" d="M184,174.35s-52.19,15.05-71.13-32.43C112.91,141.92,159.22,121.92,184,174.35Z"/><path class="cls-7" d="M217.66,193.18S200.13,231,156,212.3C156,212.3,179.88,174.33,217.66,193.18Z"/><path class="cls-7" d="M580.12,568.13c-4.9,15.4-7.19,33.86,4.16,44.55l0,0a.7.7,0,0,1-.31,1.19.3.3,0,0,0-.11,0c-9.38,2.51-66.76,13.43-116.37-78.94,0,0-13.27-33.14-43.5-44.53l-1.06-.38c-.86-.31-1.74-.61-2.64-.88a.52.52,0,0,1,.16-1A102.4,102.4,0,0,1,465.7,501.3a48.2,48.2,0,0,0,26,6.43c9.56-.43,20.41-3.77,27.38-14.81C529.41,476.49,532.56,464,533.5,458a8.24,8.24,0,0,0-2.38-7.17A48,48,0,0,0,518,442a.67.67,0,0,1,.33-1.28c9.23.83,29,1.82,30.42-4.84,1.81-8.71-2.88-21.76,10.08-27.62a53.6,53.6,0,0,0,6.27-3.3c8.34-5.17,12.08-11.59,12.06-21.64a61.79,61.79,0,0,0-1.94-11.18,41.46,41.46,0,0,0-1.74-5.64c-4.33-10-13.11-33.7-5.67-54.45,0,0,9-23.94,10.38-34.41a156.55,156.55,0,0,0,2.44-18,111,111,0,0,1,7.59,36.5c.8,19.78-2.83,39.39-8,58.59a44.85,44.85,0,0,0-.4,21.72l0,.11c1.67,7.19,3.56,19.52-10.66,30.14a20.66,20.66,0,0,0-7.78,11.4c-1.9,7.3-3.55,14.65-4.82,22.07-2.6,15.23-3.46,31.06-1.32,46.29,5.81-49.74,39.73-120.55,39.73-120.55,50.48-132.94-30.31-171.64-30.31-171.64s31.15-52.6,87.1,2.51c54.88,54.08,69.7,177.8-52.93,335.82A114.64,114.64,0,0,0,580.12,568.13Z"/><path class="cls-7" d="M556.91,293.4a7.92,7.92,0,0,1-3.08,6.14s-5.34,5.18-15.14-4.05c-9.39-8.86-31.7-28.46-62.06-21.12a.64.64,0,0,1-.53-.08A.76.76,0,0,1,476,273c9.81-6.47,38-18,60.84-3C553.44,280.84,557.09,288.59,556.91,293.4Z"/><path class="cls-7" d="M540.76,327.78c-7.67,3.08-17.75,4.09-30.37-.93-17.29-6.88-23.69-18-26-26.39a.87.87,0,0,1,1.43-.87,92.81,92.81,0,0,0,56.94,25.51.87.87,0,0,1,.31,1.65C542.34,327.11,541.56,327.45,540.76,327.78Z"/><path class="cls-8" d="M184,174.35c-29.77-7.21-71.13-32.43-71.13-32.43S159.22,121.92,184,174.35Z"/><path class="cls-8" d="M224.06,183.44a0,0,0,0,0,0,0c-6.64-8.83-27.88-58.2-27.88-58.2S236.1,137.06,224.06,183.44Z"/><path class="cls-8" d="M217.66,193.18C206.31,201.94,156,212.3,156,212.3S179.88,174.33,217.66,193.18Z"/><path class="cls-8" d="M289.3,202.71l0,0c-13.18-13.44-31.42-65.33-31.69-66.14C258.8,136.9,302.79,150.7,289.3,202.71Z"/><path class="cls-8" d="M285.93,210.66l-.26.22c-3.46,2.68-39.32,30.1-63.74,35.7C221.93,246.58,239.46,198.69,285.93,210.66Z"/><path class="cls-8" d="M355.81,212.2h0c-18.64-12.16-45.59-61-45.59-61S359.13,155.76,355.81,212.2Z"/><path class="cls-8" d="M354,221s-29.51,37.2-57.94,49.46C296.05,270.44,304.24,218.16,354,221Z"/><path class="cls-8" d="M427.93,206.54c-24.72-9.41-59-48.89-59-48.89S417.84,150.55,427.93,206.54Z"/><path class="cls-8" d="M428.22,215.56s-27.08,49.75-45,62.05C383.21,277.61,378.91,224.54,428.22,215.56Z"/><path class="cls-8" d="M496.45,180.36s-5,37.16-26.78,60.92C469.67,241.28,456.27,197,496.45,180.36Z"/><path class="cls-8" d="M494.54,172.77c-20.4-4-59.06-30.67-59.06-30.67S475.72,127.11,494.54,172.77Z"/><path class="cls-8" d="M547.65,144.6c-13.91-.39-51.88-26.93-51.88-26.93S531.12,104.49,547.65,144.6Z"/><path class="cls-8" d="M551.87,148.67s-5.83,32.15-23.52,53.51C528.35,202.18,516.56,163.31,551.87,148.67Z"/><path class="cls-8" d="M204.59,245S176.29,285.35,144,301.7C144,301.7,150.33,244.39,204.59,245Z"/><path class="cls-8" d="M527.5,68.7l-.66.15,0,0C524,67.53,368.9-16,195.59,111.54c19.52-19,91.64-83,182.56-90.3,46.37-3.74,97.62,7.26,149.3,46.49A.62.62,0,0,1,527.5,68.7Z"/><path class="cls-9" d="M540.45,111.54a74.5,74.5,0,0,0-19.16-3.64,97.62,97.62,0,0,0-49.19,9.86c-21.79,10.63-72,30.43-142.93,18.42a377.27,377.27,0,0,1-55.47-13.29c30.74,4.57,78.77,7.19,130.08-7.29C487.32,92,536.71,110.1,540.45,111.54Z"/><path class="cls-8" d="M82.37,402.34c-10.85,28.54-18.92,73-18.92,73C51,436.58,56,390.48,84.77,330.35s27.34-147.9,27.34-147.9C163.71,275.56,92.45,375.8,82.37,402.34Z"/><path class="cls-8" d="M201.29,497.68c-66.47,83.58-36.46,175.59-36.46,175.59C126,615.06,122,490.52,196.38,435.52S298.17,293.27,298.17,293.27A2.07,2.07,0,0,1,301,294.9C313.92,380.05,265.34,417.13,201.29,497.68Z"/><path class="cls-8" d="M857.51,558.67S760.21,547.09,662,639,227.32,760.45,282,420.43a1.79,1.79,0,0,1,3.08,1.34c-1.54,28.31-3.78,188.49,140.11,232.41C581.86,702,710.53,513.45,857.51,558.67Z"/><path class="cls-8" d="M445.07,722.6c-288.69,6.32-208.82-244.51-208.82-244.51-2.09,33.84-5.72,236.55,208,244.47C444.79,722.6,445.07,722.6,445.07,722.6Z"/><path class="cls-8" d="M408.75,623.22c-74-47-30.5-149.53-48.05-190C343,392.31,355.22,365,355.22,365c-.18,10.89,1.54,32.21,15.6,49.26,0,0,37.56,40.64,18.52,127,0,0-7.83,50.9,19.06,80.34A1.51,1.51,0,0,1,408.75,623.22Z"/><path class="cls-8" d="M580.12,568.13c-4.9,15.42-7.19,33.9,4.19,44.57-84-78.19,61.2-128.45,73-283.81s-92.54-134.65-92.54-134.65,31.15-52.6,87.1,2.51c54.88,54.08,69.7,177.8-52.93,335.82A114.64,114.64,0,0,0,580.12,568.13Z"/><path class="cls-9" d="M556.91,293.4a7.92,7.92,0,0,1-3.08,6.14s-5.34,5.18-15.14-4.05c-9.39-8.86-31.7-28.46-62.06-21.12a.64.64,0,0,1-.53-.08c8.25-4.76,32.87-14.75,55.49,7.5C545.91,295.87,553.2,296.22,556.91,293.4Z"/></g></g></svg>