<svg xmlns="http://www.w3.org/2000/svg" xmlns:xlink="http://www.w3.org/1999/xlink" viewBox="0 0 845 321"><defs><style>.cls-1{isolation:isolate;}.cls-2,.cls-3,.cls-4{fill:#e02b4f;}.cls-3{mix-blend-mode:screen;}.cls-4{mix-blend-mode:multiply;}.cls-5{font-size:152.19px;font-family:PlayfairDisplay-Regular, Playfair Display;}.cls-6{letter-spacing:-0.06em;}.cls-7{letter-spacing:-0.02em;}.cls-8{letter-spacing:-0.01em;}.cls-9{fill:url(#linear-gradient);}</style><linearGradient id="linear-gradient" x1="418.19" y1="249.03" x2="804.14" y2="249.03" gradientUnits="userSpaceOnUse"><stop offset="0" stop-color="#e02b4f" stop-opacity="0.6"/><stop offset="0.39" stop-color="#e02b4f" stop-opacity="0.74"/><stop offset="1" stop-color="#e02b4f"/></linearGradient></defs><g class="cls-1"><g id="Layer_2" data-name="Layer 2"><path class="cls-2" d="M34.55,161.44C30.23,172.8,27,190.51,27,190.51-21.87,128.18,30.6,78.08,40.24,69.73a.34.34,0,0,1,.51.42C36.61,77.54,20.57,108.48,25.84,136A99.71,99.71,0,0,1,46.39,73.87C66.94,111,38.57,150.86,34.55,161.44Z"/><path class="cls-2" d="M81.91,199.41c-26.47,33.28-14.52,69.92-14.52,69.92A92.5,92.5,0,0,1,43.8,237.5c-14.52-32.87-11.23-80.51,20-107.08,18.49-15.74,62.06-23.68,51.64-19-47.25,21.11-58.08,69.92-58.08,69.92,19.94-45.18,56.76-60.88,63.15-63.31a.82.82,0,0,1,1.11.65C126.76,152.56,107.42,167.33,81.91,199.41Z"/><path class="cls-2" d="M343.19,224.35c-6.13.7-28.43,4.48-49.85,23.76-23,20.71-99.06,100.45-178.88,49.62C93.76,284.54,80.2,262.47,78.62,238c-1-14.93,2.42-31.76,16-46.88a.67.67,0,0,1,1.16.49C95,205.08,93.55,285.81,178.67,289H179c-2.34-.2-52.58-5.13-68.94-51.59-13.3-37.77-1.62-62.65,4-68.74a.71.71,0,0,1,1.22.53c-.61,11.28-1.5,75.07,55.8,92.56,62.38,19,113.62-56.05,172.15-38A.34.34,0,0,1,343.19,224.35Z"/><path class="cls-2" d="M164.53,249.4a.62.62,0,0,1-.91.36c-9.31-5.07-33.88-14.85-40.66-63-2.29-16.3,3.63-37.08,8.43-45.23a63.51,63.51,0,0,0,4.83-9.8,1.15,1.15,0,0,0-1.44-1.49,3.92,3.92,0,0,1-1.39.24,5.68,5.68,0,0,1-5.57-5.68,5.56,5.56,0,0,1,9.33-4h0s6.24,4-1.3,22.58-1,52.27,5.37,62.66c0,0-8.82-37.75.9-59.73a.57.57,0,0,1,1.09.23h0c-.07,4.34.62,12.83,6.21,19.62,0,0,15,16.19,7.38,50.59,0,0-3.12,20.28,7.59,32A.61.61,0,0,1,164.53,249.4Z"/><path class="cls-2" d="M230.47,69.06l-.07,0h-.06c.27-2.35,1.47-18.32-13.36-23.4h0a29.32,29.32,0,0,0-7.63-1.45,38.83,38.83,0,0,0-19.59,3.92c-8.68,4.24-28.66,12.12-56.92,7.34a150.59,150.59,0,0,1-22.09-5.29c-10.37-3.32-14.34-5.49-30.3-2.92a.94.94,0,0,1-.81-1.6c7.77-7.55,36.49-33,72.7-36,18.47-1.49,38.88,2.89,59.46,18.51a.25.25,0,0,1,0,.39.26.26,0,0,1-.26.06h0c-6.8-2.51-33.3-10.44-68.82,2.36,0,0,55.59-13.64,83.88,12A20.49,20.49,0,0,1,230.47,69.06Z"/><path class="cls-2" d="M219.84,58.79s-15.74,3.68-20.66-10.72C199.18,48.07,213.26,42.82,219.84,58.79Z"/><path class="cls-2" d="M212.16,81.72s-4.7-15.48,9.36-21.31C221.52,60.41,227.67,74.11,212.16,81.72Z"/><path class="cls-2" d="M198.7,70S180.77,74.2,175.17,57.8C175.17,57.8,191.2,51.83,198.7,70Z"/><path class="cls-2" d="M188.79,97.29S183.45,79.68,199.45,73C199.45,73,206.45,88.64,188.79,97.29Z"/><path class="cls-2" d="M172.17,83.46S151,83.82,148.66,64C148.66,64,168.15,61.16,172.17,83.46Z"/><path class="cls-2" d="M154.36,111.76s-1.72-21.13,17.92-24.71C172.28,87.05,176.36,106.32,154.36,111.76Z"/><path class="cls-2" d="M143.45,85.72h0c-.59-.13-20.52-4.89-18.16-24.29C125.27,61.42,144.77,63.24,143.45,85.72Z"/><path class="cls-2" d="M142.72,89.21s-.56,19.57-23.07,19.7C119.65,108.91,122.91,88.09,142.72,89.21Z"/><path class="cls-2" d="M117,81.93h0c-.49-.22-18.49-8.44-12.63-26.35h0C104.81,55.73,122.33,61.22,117,81.93Z"/><path class="cls-2" d="M115.62,85.1s-4.19,18.39-25.49,14.3C90.13,99.4,97.11,80.33,115.62,85.1Z"/><path class="cls-2" d="M59.09,121.36s2.52-22.83,24.13-22.58C83.22,98.78,83.58,120.11,59.09,121.36Z"/><path class="cls-2" d="M91,74.26a0,0,0,0,0,0,0c-.43-.19-16.27-7.41-11.1-23.18C79.87,51.07,95.77,55.79,91,74.26Z"/><path class="cls-2" d="M75,70.64s-20.78,6-28.33-12.91C46.71,57.73,65.16,49.76,75,70.64Z"/><path class="cls-2" d="M88.43,78.14s-7,15-24.56,7.61C63.87,85.75,73.38,70.63,88.43,78.14Z"/><path class="cls-2" d="M232.77,227.46c-2,6.13-2.86,13.49,1.66,17.74h0a.28.28,0,0,1-.13.47l0,0c-3.74,1-26.59,5.35-46.35-31.44,0,0-5.28-13.2-17.32-17.73l-.42-.15c-.35-.13-.7-.25-1.05-.35a.21.21,0,0,1,.06-.41,40.93,40.93,0,0,1,18,5.23,19.23,19.23,0,0,0,10.34,2.56c3.81-.17,8.13-1.51,10.91-5.9,4.12-6.54,5.38-11.51,5.75-13.92a3.26,3.26,0,0,0-1-2.85,19,19,0,0,0-5.21-3.52.27.27,0,0,1,.14-.51c3.67.33,11.55.72,12.11-1.93.72-3.47-1.15-8.66,4-11a23.12,23.12,0,0,0,2.5-1.31,9.14,9.14,0,0,0,4.8-8.62,24.23,24.23,0,0,0-.77-4.45,16.58,16.58,0,0,0-.69-2.25c-1.73-4-5.22-13.42-2.26-21.68,0,0,3.58-9.54,4.13-13.71a61.22,61.22,0,0,0,1-7.17,44.22,44.22,0,0,1,3,14.54c.32,7.88-1.13,15.69-3.18,23.33a17.84,17.84,0,0,0-.16,8.65v0c.67,2.86,1.42,7.77-4.25,12a8.22,8.22,0,0,0-3.09,4.54c-.76,2.91-1.42,5.83-1.92,8.79a60.34,60.34,0,0,0-.53,18.43c2.32-19.8,15.82-48,15.82-48C258.83,94,226.66,78.56,226.66,78.56s12.4-20.94,34.68,1c21.86,21.54,27.76,70.81-21.08,133.74A45.78,45.78,0,0,0,232.77,227.46Z"/><path class="cls-2" d="M223.53,118.05a3.13,3.13,0,0,1-1.22,2.44s-2.13,2.07-6-1.61c-3.73-3.52-12.62-11.33-24.71-8.41a.25.25,0,0,1-.21,0,.3.3,0,0,1,0-.52c3.91-2.58,15.13-7.18,24.23-1.21C222.15,113.05,223.6,116.14,223.53,118.05Z"/><path class="cls-2" d="M217.1,131.74c-3,1.23-7.07,1.63-12.09-.37-6.89-2.74-9.44-7.18-10.36-10.51a.35.35,0,0,1,.58-.34,36.93,36.93,0,0,0,22.67,10.15.35.35,0,0,1,.13.66C217.73,131.48,217.42,131.61,217.1,131.74Z"/><path class="cls-3" d="M75,70.64C63.18,67.77,46.71,57.73,46.71,57.73S65.16,49.76,75,70.64Z"/><path class="cls-3" d="M91,74.26a0,0,0,0,0,0,0c-2.64-3.52-11.1-23.18-11.1-23.18S95.77,55.79,91,74.26Z"/><path class="cls-3" d="M88.43,78.14c-4.52,3.49-24.56,7.61-24.56,7.61S73.38,70.63,88.43,78.14Z"/><path class="cls-3" d="M117,81.93h0c-5.25-5.35-12.51-26-12.62-26.34C104.81,55.73,122.33,61.22,117,81.93Z"/><path class="cls-3" d="M115.62,85.1l-.11.09c-1.38,1.07-15.66,12-25.38,14.21C90.13,99.4,97.11,80.33,115.62,85.1Z"/><path class="cls-3" d="M143.45,85.72h0c-7.42-4.84-18.16-24.29-18.16-24.29S144.77,63.24,143.45,85.72Z"/><path class="cls-3" d="M142.72,89.21S131,104,119.65,108.91C119.65,108.91,122.91,88.09,142.72,89.21Z"/><path class="cls-3" d="M172.17,83.46C162.32,79.71,148.66,64,148.66,64S168.15,61.16,172.17,83.46Z"/><path class="cls-3" d="M172.28,87.05s-10.78,19.81-17.92,24.71C154.36,111.76,152.64,90.63,172.28,87.05Z"/><path class="cls-3" d="M199.45,73s-2,14.8-10.66,24.26C188.79,97.29,183.45,79.68,199.45,73Z"/><path class="cls-3" d="M198.7,70c-8.13-1.6-23.53-12.21-23.53-12.21S191.2,51.83,198.7,70Z"/><path class="cls-3" d="M219.84,58.79c-5.54-.15-20.66-10.72-20.66-10.72S213.26,42.82,219.84,58.79Z"/><path class="cls-3" d="M221.52,60.41s-2.32,12.81-9.36,21.31C212.16,81.72,207.46,66.24,221.52,60.41Z"/><path class="cls-3" d="M83.22,98.78S72,114.84,59.09,121.36C59.09,121.36,61.61,98.53,83.22,98.78Z"/><path class="cls-3" d="M211.82,28.57l-.26.06h0c-1.12-.52-62.88-33.77-131.9,17,7.77-7.55,36.49-33,72.7-36,18.47-1.49,38.88,2.89,59.46,18.51A.25.25,0,0,1,211.82,28.57Z"/><path class="cls-4" d="M217,45.63a29.32,29.32,0,0,0-7.63-1.45,38.83,38.83,0,0,0-19.59,3.92c-8.68,4.24-28.66,12.12-56.92,7.34a150.59,150.59,0,0,1-22.09-5.29C123,52,142.12,53,162.55,47.24,195.82,37.85,215.49,45.05,217,45.63Z"/><path class="cls-3" d="M34.55,161.44C30.23,172.8,27,190.51,27,190.51c-5-15.44-3-33.8,8.49-57.74s10.88-58.9,10.88-58.9C66.94,111,38.57,150.86,34.55,161.44Z"/><path class="cls-3" d="M81.91,199.41c-26.47,33.28-14.52,69.92-14.52,69.92-15.49-23.18-17-72.78,12.56-94.68S120.49,118,120.49,118a.82.82,0,0,1,1.11.65C126.76,152.56,107.42,167.33,81.91,199.41Z"/><path class="cls-3" d="M343.24,223.69s-38.75-4.61-77.85,32-173.11,48.37-151.32-87a.71.71,0,0,1,1.22.53c-.61,11.28-1.5,75.07,55.8,92.56C233.47,280.77,284.71,205.68,343.24,223.69Z"/><path class="cls-3" d="M179,289C64,291.49,95.83,191.6,95.83,191.6,95,205.08,93.55,285.81,178.67,289Z"/><path class="cls-3" d="M164.53,249.4c-29.49-18.73-12.15-59.55-19.14-75.68-7-16.28-2.18-27.16-2.18-27.16-.07,4.34.62,12.83,6.21,19.62,0,0,15,16.19,7.38,50.59,0,0-3.12,20.28,7.59,32A.61.61,0,0,1,164.53,249.4Z"/><path class="cls-3" d="M232.77,227.46c-2,6.14-2.86,13.5,1.68,17.75-33.45-31.14,24.36-51.16,29.06-113s-36.85-53.62-36.85-53.62,12.4-20.94,34.68,1c21.86,21.54,27.76,70.81-21.08,133.74A45.78,45.78,0,0,0,232.77,227.46Z"/><path class="cls-4" d="M223.53,118.05a3.13,3.13,0,0,1-1.22,2.44s-2.13,2.07-6-1.61c-3.73-3.52-12.62-11.33-24.71-8.41a.25.25,0,0,1-.21,0c3.29-1.9,13.09-5.87,22.1,3C219.15,119,222.06,119.17,223.53,118.05Z"/><text class="cls-5" transform="translate(374.48 176.37)"><tspan class="cls-6">V</tspan><tspan class="cls-7" x="86.14" y="0">A</tspan><tspan class="cls-8" x="178.98" y="0">R</tspan><tspan x="276.54" y="0">US</tspan></text><path class="cls-9" d="M418.19,249c0-9.58,7.31-16.57,17.16-16.57,5,0,9.35,1.72,12.31,5l-3,2.91a12,12,0,0,0-9.11-3.84c-7.31,0-12.73,5.28-12.73,12.45s5.42,12.44,12.73,12.44a12.06,12.06,0,0,0,9.11-3.88l3,2.91c-3,3.33-7.31,5.09-12.35,5.09C425.5,265.59,418.19,258.6,418.19,249Z"/><path class="cls-9" d="M464.82,249c0-9.49,7.31-16.57,17.26-16.57s17.16,7,17.16,16.57-7.31,16.56-17.16,16.56S464.82,258.51,464.82,249Zm29.79,0a12.16,12.16,0,0,0-12.53-12.45c-7.27,0-12.64,5.28-12.64,12.45s5.37,12.44,12.64,12.44A12.15,12.15,0,0,0,494.61,249Z"/><path class="cls-9" d="M517.23,261.52l1.71-3.61a16.72,16.72,0,0,0,10.69,3.75c5.6,0,8-2.18,8-5,0-7.91-19.61-2.91-19.61-14.94,0-5,3.88-9.26,12.4-9.26a19.09,19.09,0,0,1,10.41,2.87L539.3,239a16.69,16.69,0,0,0-8.88-2.64c-5.51,0-7.87,2.31-7.87,5.13,0,7.91,19.62,3,19.62,14.85,0,4.95-4,9.21-12.54,9.21C524.68,265.59,519.82,263.93,517.23,261.52Z"/><path class="cls-9" d="M592.82,265.22l0-23.59-11.71,19.66h-2.13l-11.7-19.53v23.46H562.8V232.84h3.79L580.1,255.6l13.32-22.76h3.8l0,32.38Z"/><path class="cls-9" d="M644.36,261.2v4H620.85V232.84h22.86v4H625.48v9.95h16.24v3.93H625.48V261.2Z"/><path class="cls-9" d="M672.16,236.86H661.05v-4h26.79v4h-11.1v28.36h-4.58Z"/><path class="cls-9" d="M706.76,232.84h4.63v32.38h-4.63Z"/><path class="cls-9" d="M732.34,249c0-9.58,7.31-16.57,17.17-16.57,5,0,9.34,1.72,12.3,5l-3,2.91a12,12,0,0,0-9.12-3.84c-7.31,0-12.72,5.28-12.72,12.45s5.41,12.44,12.72,12.44a12.08,12.08,0,0,0,9.12-3.88l3,2.91c-3,3.33-7.31,5.09-12.35,5.09C739.65,265.59,732.34,258.6,732.34,249Z"/><path class="cls-9" d="M779.2,261.52l1.72-3.61a16.67,16.67,0,0,0,10.68,3.75c5.6,0,8-2.18,8-5,0-7.91-19.62-2.91-19.62-14.94,0-5,3.89-9.26,12.4-9.26a19.06,19.06,0,0,1,10.41,2.87L801.27,239a16.66,16.66,0,0,0-8.88-2.64c-5.51,0-7.87,2.31-7.87,5.13,0,7.91,19.62,3,19.62,14.85,0,4.95-4,9.21-12.54,9.21C786.65,265.59,781.79,263.93,779.2,261.52Z"/></g></g></svg>